<?xml version="1.0" encoding="UTF-8"?>
<svg width="1200" height="800" viewBox="0 0 1200 800" xmlns="http://www.w3.org/2000/svg">
  <!-- Gradiente de fundo suave -->
  <defs>
    <linearGradient id="bg-gradient" x1="0%" y1="0%" x2="100%" y2="100%">
      <stop offset="0%" stop-color="#f0f9ff" />
      <stop offset="100%" stop-color="#e0f2fe" />
    </linearGradient>
    
    <!-- Padrão decorativo -->
    <pattern id="beauty-pattern" width="100" height="100" patternUnits="userSpaceOnUse">
      <path d="M30,10 Q40,0 50,10 T70,10 Q80,0 90,10" fill="none" stroke="#e0e7ff" stroke-width="2"/>
      <path d="M10,30 Q20,20 30,30 T50,30 Q60,20 70,30 T90,30" fill="none" stroke="#dbeafe" stroke-width="2"/>
      <path d="M10,50 Q0,40 10,30 T10,10 Q0,0 10,-10" fill="none" stroke="#e0e7ff" stroke-width="2"/>
      <path d="M30,50 Q20,40 30,30 T30,10 Q20,0 30,-10" fill="none" stroke="#dbeafe" stroke-width="2"/>
      <path d="M50,50 Q40,40 50,30 T50,10 Q40,0 50,-10" fill="none" stroke="#e0e7ff" stroke-width="2"/>
      <path d="M70,50 Q60,40 70,30 T70,10 Q60,0 70,-10" fill="none" stroke="#dbeafe" stroke-width="2"/>
      <path d="M90,50 Q80,40 90,30 T90,10 Q80,0 90,-10" fill="none" stroke="#e0e7ff" stroke-width="2"/>
    </pattern>
    
    <!-- Ícones de beleza estilizados -->
    <g id="beauty-icon-1">
      <path d="M10,0 C15,0 20,5 20,10 C20,15 15,20 10,20 C5,20 0,15 0,10 C0,5 5,0 10,0 Z" fill="#bfdbfe" opacity="0.7" />
      <path d="M8,5 L12,5 L12,15 C12,16 11,17 10,17 C9,17 8,16 8,15 Z" fill="#93c5fd" opacity="0.7" />
    </g>
    
    <g id="beauty-icon-2">
      <path d="M5,0 L15,0 C17,0 20,3 20,5 L20,15 C20,17 17,20 15,20 L5,20 C3,20 0,17 0,15 L0,5 C0,3 3,0 5,0 Z" fill="#bfdbfe" opacity="0.7" />
      <path d="M5,5 L15,5 L15,15 L5,15 Z" fill="#93c5fd" opacity="0.7" />
    </g>
    
    <g id="beauty-icon-3">
      <path d="M10,0 L20,10 L10,20 L0,10 Z" fill="#bfdbfe" opacity="0.7" />
      <circle cx="10" cy="10" r="5" fill="#93c5fd" opacity="0.7" />
    </g>
  </defs>
  
  <!-- Fundo -->
  <rect width="100%" height="100%" fill="url(#bg-gradient)" />
  
  <!-- Padrão decorativo aplicado -->
  <rect width="100%" height="100%" fill="url(#beauty-pattern)" opacity="0.5" />
  
  <!-- Adicionando ícones decorativos espalhados -->
  <use href="#beauty-icon-1" x="100" y="100" />
  <use href="#beauty-icon-2" x="300" y="200" />
  <use href="#beauty-icon-3" x="500" y="150" />
  <use href="#beauty-icon-1" x="700" y="300" />
  <use href="#beauty-icon-2" x="900" y="250" />
  <use href="#beauty-icon-3" x="1100" y="400" />
  <use href="#beauty-icon-1" x="200" y="500" />
  <use href="#beauty-icon-2" x="400" y="600" />
  <use href="#beauty-icon-3" x="600" y="550" />
  <use href="#beauty-icon-1" x="800" y="650" />
  <use href="#beauty-icon-2" x="1000" y="700" />
  
  <!-- Elementos decorativos no canto -->
  <path d="M0,0 Q300,100 0,200" fill="none" stroke="#dbeafe" stroke-width="5" opacity="0.5" />
  <path d="M1200,0 Q900,100 1200,200" fill="none" stroke="#dbeafe" stroke-width="5" opacity="0.5" />
  <path d="M0,800 Q300,700 0,600" fill="none" stroke="#dbeafe" stroke-width="5" opacity="0.5" />
  <path d="M1200,800 Q900,700 1200,600" fill="none" stroke="#dbeafe" stroke-width="5" opacity="0.5" />
</svg>