<svg width="1200" height="600" viewBox="0 0 1200 600" xmlns="http://www.w3.org/2000/svg">
  <!-- Background gradient -->
  <defs>
    <linearGradient id="bg-gradient" x1="0%" y1="0%" x2="100%" y2="100%">
      <stop offset="0%" stop-color="#6c63ff" stop-opacity="0.8"/>
      <stop offset="100%" stop-color="#3f3d56" stop-opacity="0.9"/>
    </linearGradient>
    <linearGradient id="highlight" x1="0%" y1="0%" x2="100%" y2="100%">
      <stop offset="0%" stop-color="#ffffff" stop-opacity="0.1"/>
      <stop offset="100%" stop-color="#ffffff" stop-opacity="0.4"/>
    </linearGradient>
  </defs>
  
  <!-- Background -->
  <rect width="100%" height="100%" fill="url(#bg-gradient)"/>
  
  <!-- Decorative elements -->
  <circle cx="200" cy="150" r="80" fill="url(#highlight)" opacity="0.6"/>
  <circle cx="1000" cy="450" r="120" fill="url(#highlight)" opacity="0.3"/>
  
  <!-- Stylized hair silhouette left -->
  <path d="M150,300 C200,200 300,250 280,350 C260,450 180,400 150,300 Z" fill="#3f3d56" opacity="0.7"/>
  
  <!-- Stylized comb right -->
  <g transform="translate(900, 200)">
    <rect x="0" y="0" width="100" height="30" rx="5" fill="#f2f2f2"/>
    <rect x="10" y="30" width="5" height="40" rx="2" fill="#f2f2f2"/>
    <rect x="25" y="30" width="5" height="40" rx="2" fill="#f2f2f2"/>
    <rect x="40" y="30" width="5" height="40" rx="2" fill="#f2f2f2"/>
    <rect x="55" y="30" width="5" height="40" rx="2" fill="#f2f2f2"/>
    <rect x="70" y="30" width="5" height="40" rx="2" fill="#f2f2f2"/>
    <rect x="85" y="30" width="5" height="40" rx="2" fill="#f2f2f2"/>
  </g>
  
  <!-- Decorative scissors -->
  <g transform="translate(800, 350) rotate(-30)">
    <path d="M0,0 L100,100 M0,100 L100,0" stroke="#f2f2f2" stroke-width="8" stroke-linecap="round"/>
    <circle cx="15" cy="15" r="15" fill="#f2f2f2"/>
    <circle cx="85" cy="85" r="15" fill="#f2f2f2"/>
  </g>
  
  <!-- Stylized hair dryer -->
  <g transform="translate(300, 400)">
    <path d="M0,0 C0,0 20,-20 60,-20 C100,-20 120,0 120,0 L120,60 C120,60 100,80 60,80 C20,80 0,60 0,60 Z" fill="#f2f2f2"/>
    <rect x="120" y="20" width="60" height="20" fill="#f2f2f2"/>
  </g>
  
  <!-- Abstract wave patterns -->
  <path d="M0,500 C200,450 400,550 600,500 C800,450 1000,550 1200,500 L1200,600 L0,600 Z" fill="#ffffff" opacity="0.1"/>
  <path d="M0,520 C200,470 400,570 600,520 C800,470 1000,570 1200,520 L1200,600 L0,600 Z" fill="#ffffff" opacity="0.1"/>
</svg>